<?xml version="1.0" encoding="utf-8"?>
<svg xmlns="http://www.w3.org/2000/svg"
	xmlns:xlink="http://www.w3.org/1999/xlink"
	width="26px" height="26px">
<path fill="rgb(51,51,51)" fill-rule="evenodd" d="M 21 22.76C 21 22.76 21.79 24.12 21.79 24.12 19.61 25.37 17.19 26.01 14.75 26.01 13.52 26.01 12.29 25.85 11.08 25.52 7.45 24.55 4.44 22.24 2.58 19.02-1.23 12.41 1.07 3.86 7.71-0.02 7.71-0.02 8.51 1.33 8.51 1.33 2.61 4.78 0.56 12.37 3.95 18.25 5.6 21.11 8.27 23.16 11.49 24.01 14.72 24.88 18.1 24.43 21 22.76ZM 25.9 11.82C 25.9 15.78 23.75 19.24 20.55 21.13 20.51 21.15 20.48 21.18 20.44 21.21 20.42 21.22 20.39 21.22 20.37 21.23 18.78 22.13 16.94 22.66 14.98 22.66 8.95 22.66 4.05 17.8 4.05 11.82 4.05 7.87 6.21 4.41 9.41 2.52 9.45 2.5 9.48 2.46 9.52 2.44 9.54 2.43 9.56 2.42 9.59 2.41 11.18 1.51 13.02 0.99 14.98 0.99 21 0.99 25.9 5.85 25.9 11.82ZM 19.89 15.73C 19.89 15.73 15.91 17.99 15.91 17.99 17.24 19.27 18.44 19.95 19.22 19.95 19.38 19.95 19.51 19.92 19.62 19.86 19.65 19.84 19.68 19.83 19.71 19.81 20.22 19.44 20.38 18.29 20.13 16.76 20.08 16.43 19.98 16.08 19.89 15.73ZM 19.42 14.2C 19.05 13.16 18.57 12.09 17.98 11.01 17.98 11.01 12.76 13.99 12.76 13.99 13.44 15.08 14.12 16.02 14.81 16.81 14.81 16.81 19.42 14.2 19.42 14.2ZM 11.96 12.65C 11.96 12.65 17.19 9.65 17.19 9.65 16.52 8.57 15.83 7.63 15.15 6.84 15.15 6.84 10.52 9.46 10.52 9.46 10.87 10.44 11.35 11.51 11.96 12.65ZM 9.14 10.24C 9.14 10.24 5.65 12.22 5.65 12.22 5.71 13.48 6.01 14.68 6.53 15.76 6.53 15.76 10.6 13.43 10.6 13.43 10.03 12.39 9.54 11.31 9.14 10.24ZM 10.04 7.93C 10.04 7.93 14.05 5.66 14.05 5.66 12.72 4.38 11.52 3.69 10.74 3.69 10.58 3.69 10.45 3.73 10.34 3.79 10.31 3.81 10.28 3.83 10.24 3.84 9.65 4.28 9.5 5.78 10.04 7.93ZM 20.82 13.41C 20.82 13.41 24.31 11.43 24.31 11.43 24.25 10.17 23.95 8.97 23.43 7.89 23.43 7.89 19.35 10.23 19.35 10.23 19.93 11.3 20.43 12.37 20.82 13.41ZM 20.06 4.05C 20.06 4.05 16.55 6.04 16.55 6.04 17.25 6.88 17.93 7.83 18.57 8.86 18.57 8.86 22.64 6.53 22.64 6.53 21.95 5.55 21.07 4.71 20.06 4.05ZM 14.98 2.55C 14.26 2.55 13.56 2.64 12.89 2.8 13.72 3.26 14.6 3.96 15.48 4.85 15.48 4.85 18.39 3.2 18.39 3.2 17.33 2.79 16.18 2.55 14.98 2.55ZM 5.76 10.36C 5.76 10.36 8.64 8.72 8.64 8.72 8.32 7.57 8.14 6.48 8.14 5.52 6.91 6.84 6.06 8.51 5.76 10.36ZM 9.9 19.59C 9.9 19.59 13.41 17.61 13.41 17.61 12.71 16.77 12.03 15.82 11.39 14.79 11.39 14.79 7.31 17.11 7.31 17.11 8.01 18.1 8.88 18.94 9.9 19.59ZM 14.98 21.1C 15.7 21.1 16.4 21.01 17.07 20.85 16.24 20.39 15.36 19.69 14.48 18.8 14.48 18.8 11.57 20.45 11.57 20.45 12.63 20.86 13.78 21.1 14.98 21.1ZM 24.2 13.29C 24.2 13.29 21.32 14.92 21.32 14.92 21.48 15.47 21.6 16 21.68 16.51 21.78 17.09 21.82 17.63 21.82 18.12 23.05 16.8 23.9 15.14 24.2 13.29Z"/>
</svg>